<?xml version="1.0" encoding="UTF-8" standalone="no"?>
<!DOCTYPE svg PUBLIC "-//W3C//DTD SVG 1.1//EN" "http://www.w3.org/Graphics/SVG/1.1/DTD/svg11.dtd">
<svg width="100%" height="100%" viewBox="0 0 2530 1266" version="1.1" xmlns="http://www.w3.org/2000/svg" xmlns:xlink="http://www.w3.org/1999/xlink" xml:space="preserve" xmlns:serif="http://www.serif.com/" style="fill-rule:evenodd;clip-rule:evenodd;stroke-linecap:round;stroke-linejoin:round;stroke-miterlimit:1.5;">
    <g transform="matrix(1,0,0,1,-15,-87)">
        <g transform="matrix(14.8982,0,0,19.3301,-38548.6,-1975.79)">
            <g id="camera-overlay">
                <g id="frame">
                    <g transform="matrix(1.21338,0,0,0.325983,-626.421,69.1063)">
                        <rect x="2649.84" y="116.269" width="139.335" height="199.106" style="fill:none;stroke:white;stroke-width:0.76px;"/>
                    </g>
                    <g transform="matrix(0.181344,0,0,0.0978069,2119.51,104.631)">
                        <clipPath id="_clip1">
                            <rect x="2649.84" y="116.269" width="132.468" height="189.293"/>
                        </clipPath>
                        <g clip-path="url(#_clip1)">
                            <rect x="2649.84" y="116.269" width="139.335" height="199.106" style="fill:none;stroke:white;stroke-width:12.87px;"/>
                        </g>
                    </g>
                    <g transform="matrix(-0.181344,0,0,0.0978069,3227.06,104.631)">
                        <clipPath id="_clip2">
                            <rect x="2649.84" y="116.269" width="132.468" height="189.293"/>
                        </clipPath>
                        <g clip-path="url(#_clip2)">
                            <rect x="2649.84" y="116.269" width="139.335" height="199.106" style="fill:none;stroke:white;stroke-width:12.87px;"/>
                        </g>
                    </g>
                    <g transform="matrix(1.11041e-17,-0.139764,0.126905,5.98895e-18,2585.28,533.247)">
                        <clipPath id="_clip3">
                            <rect x="2649.84" y="116.269" width="132.468" height="189.293"/>
                        </clipPath>
                        <g clip-path="url(#_clip3)">
                            <rect x="2649.84" y="116.269" width="139.335" height="199.106" style="fill:none;stroke:white;stroke-width:12.87px;"/>
                        </g>
                    </g>
                    <g transform="matrix(-1.11041e-17,-0.139764,-0.126905,5.98895e-18,2761.29,533.247)">
                        <clipPath id="_clip4">
                            <rect x="2649.84" y="116.269" width="132.468" height="189.293"/>
                        </clipPath>
                        <g clip-path="url(#_clip4)">
                            <rect x="2649.84" y="116.269" width="139.335" height="199.106" style="fill:none;stroke:white;stroke-width:12.87px;"/>
                        </g>
                    </g>
                </g>
                <g id="focal-point">
                    <g transform="matrix(0.499378,0,0,0.384876,1320.26,100.973)">
                        <circle cx="2709.6" cy="100" r="19.587" style="fill:none;stroke:white;stroke-width:3.36px;"/>
                    </g>
                    <g transform="matrix(0.68255,0,0,0.526049,823.943,86.8561)">
                        <clipPath id="_clip5">
                            <rect x="2685" y="80.413" width="19.452" height="39.174"/>
                        </clipPath>
                        <g clip-path="url(#_clip5)">
                            <circle cx="2709.6" cy="100" r="19.587" style="fill:none;stroke:white;stroke-width:1.48px;"/>
                        </g>
                    </g>
                    <g transform="matrix(-0.68255,0,0,0.526049,4522.79,86.8561)">
                        <clipPath id="_clip6">
                            <rect x="2685" y="80.413" width="19.452" height="39.174"/>
                        </clipPath>
                        <g clip-path="url(#_clip6)">
                            <circle cx="2709.6" cy="100" r="19.587" style="fill:none;stroke:white;stroke-width:1.48px;"/>
                        </g>
                    </g>
                </g>
            </g>
        </g>
    </g>
</svg>
